<svg xmlns="http://www.w3.org/2000/svg" viewBox="0 0 64 64" width="64" height="64" role="img" aria-label="My calendar">
  <defs>
    <linearGradient id="bg" x1="0" y1="0" x2="0" y2="1">
      <stop offset="0" stop-color="#6B2170"/>
      <stop offset="1" stop-color="#3B0F3D"/>
    </linearGradient>
  </defs>

  <!-- 앱 배경: 브랜드 아우버진 (#4A154B 계열) -->
  <rect width="64" height="64" rx="14" fill="url(#bg)"/>

  <!-- 달력 상단 고리 -->
  <rect x="21" y="8" width="4" height="10" rx="2" fill="#ECB22E"/>
  <rect x="39" y="8" width="4" height="10" rx="2" fill="#ECB22E"/>

  <!-- 달력 카드 -->
  <rect x="11" y="13" width="42" height="41" rx="6" fill="#FFFFFF"/>
  <path d="M11 19a6 6 0 0 1 6-6h30a6 6 0 0 1 6 6v3H11z" fill="#E4CEE6"/>

  <!-- 일정 블록: 두서없는 메모가 정리된 모습 (앱의 이벤트 색 그대로) -->
  <rect x="17" y="28" width="21" height="4.5" rx="2.25" fill="#1264A3"/>
  <rect x="17" y="36" width="30" height="4.5" rx="2.25" fill="#2EB67D"/>
  <rect x="17" y="44" width="15" height="4.5" rx="2.25" fill="#ECB22E"/>

  <!-- AI 스파클: 알아서 정리해준다는 표시 -->
  <path d="M47.5 35.5c.35 4.6 1.4 5.65 6 6-4.6.35-5.65 1.4-6 6-.35-4.6-1.4-5.65-6-6 4.6-.35 5.65-1.4 6-6z"
        fill="#ECB22E" stroke="#3B0F3D" stroke-width="2.2" stroke-linejoin="round"/>
</svg>
